<?xml version="1.0" encoding="utf-8"?>
<!-- Generator: Adobe Illustrator 19.0.0, SVG Export Plug-In . SVG Version: 6.00 Build 0)  -->
<svg version="1.1" id="Layer_1" xmlns="http://www.w3.org/2000/svg" xmlns:xlink="http://www.w3.org/1999/xlink" x="0px" y="0px"
	 viewBox="0 0 500 500" style="enable-background:new 0 0 500 500;" xml:space="preserve">
<style type="text/css">
	.st0{fill:#00458A;}
	.st1{fill:#2DC6D6;}
</style>
<g id="XMLID_1_">
	<polygon id="XMLID_3_" class="st0" points="69.4,294.8 71.1,294.8 73.7,282.3 77.7,282.3 78,280.9 67.8,280.9 67.5,282.3 72,282.3 
			"/>
	<path id="XMLID_6_" class="st0" d="M83.5,292.6c-1.6,1-2.1,1.2-3,1.2c-1.5,0-2.5-1.1-2.5-2.8c0-0.3,0-0.6,0.1-1.2h6.7
		c0-0.7,0.1-1.1,0.1-1.4c0-2.5-1.1-3.8-3.1-3.8c-1.6,0-3,0.8-4.1,2.3c-0.8,1.2-1.3,2.5-1.3,4c0,2.6,1.5,4.2,3.8,4.2
		c0.7,0,1.5-0.2,2.2-0.5c0.5-0.2,0.5-0.2,1.7-1L83.5,292.6z M78.3,288.7c0.4-0.9,0.5-1.2,0.9-1.7c0.7-0.9,1.6-1.4,2.4-1.4
		c1.1,0,1.7,0.8,1.7,2.2c0,0.1,0,0.5,0,0.9L78.3,288.7z"/>
	<path id="XMLID_7_" class="st0" d="M93.7,292.8c-1.1,0.8-1.9,1.1-2.9,1.1c-1.4,0-2.4-1.1-2.4-2.8c0-3,2.4-5.3,5.4-5.3
		c0.4,0,0.6,0,1,0.1l0.5-1.1c-0.7-0.2-1-0.2-1.6-0.2c-3.8,0-6.9,2.9-6.9,6.5c0,2.4,1.5,4.1,3.7,4.1c1.3,0,2.1-0.3,3.9-1.4
		L93.7,292.8z"/>
	<path id="XMLID_8_" class="st0" d="M96.2,294.8h1.6l1.4-6.8c1.5-1.4,2.8-2.2,3.7-2.2c0.6,0,1.1,0.4,1.1,1c0,0.3-0.1,0.9-0.2,1.6
		l-1.3,6.3h1.6l1.5-6.9c0.1-0.5,0.2-1,0.2-1.4c0-1.2-0.8-1.9-2-1.9c-1.4,0-2.8,0.8-4.1,2.2l1.4-6.8h-1.6L96.2,294.8z"/>
	<path id="XMLID_9_" class="st0" d="M107.4,294.8h1.6l1.4-6.8c1.6-1.4,2.8-2.2,3.7-2.2c0.7,0,1.1,0.4,1.1,1.1c0,0.3,0,0.5-0.1,0.7
		l-1.5,7.2h1.6l1.4-7c0.1-0.4,0.1-0.9,0.1-1.3c0-1.2-0.8-2-2.1-2c-1.3,0-2.5,0.6-4.2,2.2l0.5-1.9h-1.6L107.4,294.8z"/>
	<path id="XMLID_12_" class="st0" d="M118.8,294.8h1.6l2.1-10h-1.6L118.8,294.8z M121.2,282.6h1.7l0.4-1.8h-1.7L121.2,282.6z"/>
	<path id="XMLID_13_" class="st0" d="M123.4,294.5c1.1,0.4,1.6,0.6,2.6,0.6c2.4,0,4-1.2,4-3.1c0-1-0.6-1.8-1.7-2.5l-1-0.6
		c-0.7-0.4-1-0.9-1-1.5c0-1.1,0.9-1.8,2.3-1.8c0.7,0,1.4,0.1,2.1,0.4l0.4-1.1c-1-0.3-1.7-0.4-2.5-0.4c-2.3,0-3.9,1.2-3.9,3
		c0,1,0.6,1.9,1.6,2.5l0.7,0.4c1,0.6,1.4,1,1.4,1.7c0,1-1,1.7-2.4,1.7c-0.7,0-1.3-0.1-2.1-0.5L123.4,294.5z"/>
	<path id="XMLID_14_" class="st0" d="M139.3,292.8c-1.1,0.8-1.9,1.1-2.9,1.1c-1.4,0-2.4-1.1-2.4-2.8c0-3,2.4-5.3,5.4-5.3
		c0.4,0,0.6,0,1,0.1l0.5-1.1c-0.7-0.2-1-0.2-1.6-0.2c-3.8,0-6.9,2.9-6.9,6.5c0,2.4,1.5,4.1,3.7,4.1c1.3,0,2.1-0.3,3.9-1.4
		L139.3,292.8z"/>
	<path id="XMLID_15_" class="st0" d="M141.8,294.8h1.6l1.4-6.8c1.5-1.4,2.8-2.2,3.7-2.2c0.6,0,1.1,0.4,1.1,1c0,0.3-0.1,0.9-0.2,1.6
		l-1.3,6.3h1.6l1.5-6.9c0.1-0.5,0.2-1,0.2-1.4c0-1.2-0.8-1.9-2-1.9c-1.4,0-2.8,0.8-4.1,2.2l1.4-6.8h-1.6L141.8,294.8z"/>
	<path id="XMLID_18_" class="st0" d="M160.6,292.6c-1.6,1-2.1,1.2-3,1.2c-1.5,0-2.6-1.1-2.6-2.8c0-0.3,0-0.6,0.1-1.2h6.7
		c0-0.7,0.1-1.1,0.1-1.4c0-2.5-1.1-3.8-3.1-3.8c-1.6,0-3,0.8-4.1,2.3c-0.8,1.2-1.3,2.5-1.3,4c0,2.6,1.5,4.2,3.8,4.2
		c0.7,0,1.5-0.2,2.2-0.5c0.5-0.2,0.5-0.2,1.7-1L160.6,292.6z M155.4,288.7c0.4-0.9,0.5-1.2,0.9-1.7c0.7-0.9,1.6-1.4,2.4-1.4
		c1.1,0,1.7,0.8,1.7,2.2c0,0.1,0,0.5,0,0.9L155.4,288.7z"/>
	<path id="XMLID_19_" class="st0" d="M183.9,280.9h-1.7l-1.8,8.9c-0.6,2.7-1.9,4-4.1,4c-1.9,0-3.3-1.1-3.3-2.9c0-0.5,0.1-1,0.2-1.5
		l1.8-8.6h-1.7l-1.7,8.3c-0.1,0.6-0.2,1.2-0.2,1.8c0,2.5,1.8,4,4.8,4c1.8,0,3.3-0.5,4.2-1.6c0.8-0.9,1.3-1.8,1.6-3.6L183.9,280.9z"
		/>
	<path id="XMLID_20_" class="st0" d="M184.6,294.8h1.6l1.4-6.8c1.6-1.4,2.8-2.2,3.7-2.2c0.7,0,1.1,0.4,1.1,1.1c0,0.3,0,0.5-0.1,0.7
		l-1.5,7.2h1.6l1.5-7c0.1-0.4,0.1-0.9,0.1-1.3c0-1.2-0.8-2-2.1-2c-1.3,0-2.5,0.6-4.2,2.2l0.5-1.9h-1.6L184.6,294.8z"/>
	<path id="XMLID_23_" class="st0" d="M195.9,294.8h1.6l2-10H198L195.9,294.8z M198.4,282.6h1.7l0.4-1.8h-1.7L198.4,282.6z"/>
	<polygon id="XMLID_24_" class="st0" points="203.9,294.8 205.3,294.8 210.9,285.1 209.5,284.5 204.9,292.7 203.3,284.5 
		201.7,284.9 	"/>
	<path id="XMLID_27_" class="st0" d="M218.4,292.6c-1.6,1-2.1,1.2-3,1.2c-1.5,0-2.5-1.1-2.5-2.8c0-0.3,0-0.6,0.1-1.2h6.7
		c0-0.7,0.1-1.1,0.1-1.4c0-2.5-1.1-3.8-3.1-3.8c-1.6,0-3,0.8-4.1,2.3c-0.8,1.2-1.3,2.5-1.3,4c0,2.6,1.5,4.2,3.8,4.2
		c0.7,0,1.5-0.2,2.2-0.5c0.5-0.2,0.5-0.2,1.7-1L218.4,292.6z M213.2,288.7c0.4-0.9,0.5-1.2,0.9-1.7c0.7-0.9,1.6-1.4,2.4-1.4
		c1.1,0,1.7,0.8,1.7,2.2c0,0.1,0,0.5,0,0.9L213.2,288.7z"/>
	<path id="XMLID_28_" class="st0" d="M221.4,294.8h1.6l1.4-6.9c1.1-1.5,1.7-1.9,2.7-1.9c0.3,0,0.5,0,0.8,0.1l0.4-1.5
		c-0.4-0.1-0.6-0.1-0.8-0.1c-1.1,0-2.1,0.7-3,2l0.5-1.7h-1.6L221.4,294.8z"/>
	<path id="XMLID_29_" class="st0" d="M228,294.5c1.1,0.4,1.6,0.6,2.6,0.6c2.4,0,4-1.2,4-3.1c0-1-0.6-1.8-1.7-2.5l-1-0.6
		c-0.7-0.4-1-0.9-1-1.5c0-1.1,0.9-1.8,2.3-1.8c0.7,0,1.4,0.1,2.1,0.4l0.4-1.1c-1-0.3-1.7-0.4-2.5-0.4c-2.3,0-3.9,1.2-3.9,3
		c0,1,0.6,1.9,1.6,2.5l0.7,0.4c1,0.6,1.4,1,1.4,1.7c0,1-1,1.7-2.4,1.7c-0.7,0-1.3-0.1-2.1-0.5L228,294.5z"/>
	<path id="XMLID_32_" class="st0" d="M236.8,294.8h1.6l2-10h-1.6L236.8,294.8z M239.3,282.6h1.7l0.4-1.8h-1.7L239.3,282.6z"/>
	<path id="XMLID_33_" class="st0" d="M242.6,285.9h2.1l-1,5c-0.2,1.1-0.3,1.3-0.3,1.9c0,1.4,0.8,2.3,2.1,2.3c0.8,0,1.1-0.1,2.9-1.1
		l-0.5-1c-1.1,0.6-1.5,0.7-1.9,0.7c-0.6,0-1-0.4-1-1c0-0.4,0.1-0.9,0.2-1.6l1.1-5.3h2.4l0.2-1.1h-2.4l0.8-3.9h-1.6l-0.8,3.9h-2.1
		L242.6,285.9z"/>
	<path id="XMLID_38_" class="st0" d="M258.4,293.4c-0.6,0.3-0.7,0.4-1,0.4c-0.3,0-0.4-0.2-0.4-0.6c0-0.2,0-0.4,0.2-1.1l0.9-4.5
		c0.1-0.5,0.2-1,0.2-1.3c0-1.2-0.8-1.9-2.3-1.9c-1.3,0-2.7,0.5-4.3,1.6l0.6,0.9c1.4-0.9,2.5-1.3,3.4-1.3c0.7,0,1.2,0.4,1.2,0.9
		c0,0.1,0,0.3,0,0.4l-0.3,1.5c-1.7,0.2-2.8,0.4-3.7,0.7c-1.8,0.6-2.8,1.8-2.8,3.3c0,1.4,1.1,2.5,2.6,2.5c1.1,0,2-0.5,3-1.6l0,0.4
		c0,0.7,0.4,1.2,1,1.2c0.4,0,0.8-0.1,1.6-0.6c0.2-0.1,0.4-0.2,0.6-0.4L258.4,293.4z M255.6,292.3l-0.5,0.5c-0.6,0.6-1.4,1-2.1,1
		c-0.9,0-1.6-0.7-1.6-1.6c0-0.7,0.4-1.4,1.2-1.9c0.7-0.4,1.7-0.7,3.5-1L255.6,292.3z M253.1,282.5h1.6l0.4-1.7h-1.6L253.1,282.5z
		 M256.6,282.5h1.6l0.3-1.7h-1.6L256.6,282.5z"/>
	<path id="XMLID_39_" class="st0" d="M261.1,285.9h2.1l-1,5c-0.2,1.1-0.3,1.3-0.3,1.9c0,1.4,0.8,2.3,2.1,2.3c0.8,0,1.1-0.1,2.9-1.1
		l-0.5-1c-1.1,0.6-1.5,0.7-1.9,0.7c-0.6,0-1-0.4-1-1c0-0.4,0.1-0.9,0.2-1.6l1.1-5.3h2.4l0.2-1.1H265l0.8-3.9h-1.6l-0.8,3.9h-2.1
		L261.1,285.9z"/>
	<polygon id="XMLID_40_" class="st0" points="275.3,294.8 277,294.8 278.4,288.2 285.6,288.2 284.3,294.8 286,294.8 288.8,280.9 
		287.2,280.9 285.9,286.9 278.6,286.9 279.9,280.9 278.2,280.9 	"/>
	<path id="XMLID_43_" class="st0" d="M298,293.4c-0.6,0.3-0.7,0.4-1,0.4c-0.3,0-0.4-0.2-0.4-0.6c0-0.2,0-0.4,0.2-1.1l0.9-4.5
		c0.1-0.5,0.2-1,0.2-1.3c0-1.2-0.8-1.9-2.3-1.9c-1.3,0-2.7,0.5-4.3,1.6l0.6,0.9c1.5-0.9,2.5-1.3,3.4-1.3c0.7,0,1.2,0.4,1.2,0.9
		c0,0.1,0,0.3,0,0.4l-0.3,1.5c-1.7,0.2-2.8,0.4-3.7,0.7c-1.8,0.6-2.8,1.8-2.8,3.3c0,1.4,1.1,2.5,2.6,2.5c1.1,0,2-0.5,3-1.6l0,0.4
		c0,0.7,0.4,1.2,1,1.2c0.4,0,0.8-0.1,1.6-0.6c0.2-0.1,0.4-0.2,0.6-0.4L298,293.4z M295.2,292.3l-0.5,0.5c-0.6,0.6-1.4,1-2.1,1
		c-0.9,0-1.6-0.7-1.6-1.6c0-0.7,0.4-1.4,1.2-1.9c0.7-0.4,1.7-0.7,3.5-1L295.2,292.3z"/>
	<path id="XMLID_44_" class="st0" d="M300.1,294.8h1.6l1.4-7c1.7-1.3,2.8-1.9,3.5-1.9c0.6,0,1,0.4,1,1c0,0.3,0,0.4,0,0.6l-1.5,7.4
		h1.6l1.4-7c1.6-1.3,2.7-2,3.5-2c0.6,0,1,0.4,1,0.8c0,0.3,0,0.6-0.1,1l-1.5,7.1h1.6l1.5-7c0.1-0.4,0.1-1,0.1-1.3c0-1.3-0.7-2-1.8-2
		c-1.3,0-2.6,0.7-4,2.1v-0.4c0-1-0.7-1.7-1.8-1.7c-1.2,0-2.3,0.6-4.2,2.1l0.4-1.8h-1.5L300.1,294.8z"/>
	<path id="XMLID_47_" class="st0" d="M316.9,294.8c1.6,0,2.1,0.1,2.6,0.1c1.5,0,2.7-0.3,3.8-1c2-1.2,3.3-3.5,3.3-5.8
		c0-2.1-1.2-3.5-3-3.5c-1.3,0-2.5,0.6-3.5,1.9l1.4-6.5H320L316.9,294.8z M319.9,287.8c1.5-1.5,2.3-2,3.3-2c1.1,0,1.8,0.9,1.8,2.3
		c0,1.7-0.8,3.4-2,4.4c-1,0.8-2.1,1.2-3.5,1.2l-0.8,0L319.9,287.8z"/>
	<path id="XMLID_48_" class="st0" d="M330.3,284.8l-1.5,7.1c-0.1,0.5-0.2,1-0.2,1.4c0,1.1,0.8,1.8,2,1.8c1.4,0,2.7-0.7,4.1-2.4
		l-0.5,2.1h1.6l2.1-10h-1.6l-1.4,6.6c-1.7,1.7-2.7,2.4-3.7,2.4c-0.5,0-1-0.4-1-0.9c0-0.2,0.1-0.7,0.2-1.3l1.4-6.8L330.3,284.8
		L330.3,284.8z"/>
	<path id="XMLID_49_" class="st0" d="M339.4,294.8h1.6l1.4-6.9c1.1-1.5,1.7-1.9,2.7-1.9c0.3,0,0.5,0,0.8,0.1l0.4-1.5
		c-0.4-0.1-0.6-0.1-0.8-0.1c-1.1,0-2.1,0.7-3,2l0.5-1.7h-1.6L339.4,294.8z"/>
	<path id="XMLID_53_" class="st0" d="M356,284.8l-3,0.1c-0.7-0.3-1.1-0.4-1.7-0.4c-1.1,0-2,0.3-2.7,1c-0.7,0.7-1.2,1.7-1.2,2.7
		c0,1.1,0.4,1.8,1.3,2.3l-1.7,0.9c-0.6,0.3-0.9,0.7-0.9,1c0,0.3,0.2,0.6,0.6,0.8c0.3,0.2,0.7,0.3,1.7,0.5c-2,0.7-3.1,1.8-3.1,3.1
		c0,1.6,1.7,2.8,4.1,2.8c2.8,0,5-1.5,5-3.5c0-1.2-1-2.1-2.6-2.6l-2.5-0.7c-1.2-0.3-1.3-0.4-1.3-0.7c0-0.2,0.1-0.3,0.4-0.5l1.1-0.6
		c0.5,0.2,0.8,0.2,1.3,0.2c2.2,0,3.8-1.6,3.8-3.5c0-0.8-0.2-1.4-0.7-1.8h2L356,284.8z M351.3,285.4c1.1,0,1.7,0.8,1.7,2
		c0,1.5-1,2.8-2.3,2.8c-1.1,0-1.8-0.8-1.8-1.9C348.9,286.7,349.9,285.4,351.3,285.4z M350.5,294.4c1.1,0.3,1.1,0.3,1.3,0.4
		c0.6,0.3,1,0.8,1,1.3c0,1.3-1.4,2.4-3.2,2.4c-1.6,0-2.8-0.8-2.8-1.9c0-0.9,0.8-1.6,2.6-2.5L350.5,294.4z"/>
	<polygon id="XMLID_54_" class="st0" points="356,290.2 360.4,290.2 360.7,288.9 356.3,288.9 	"/>
	<polygon id="XMLID_55_" class="st0" points="361.6,294.8 363.3,294.8 364.6,288.2 371.9,288.2 370.5,294.8 372.2,294.8 
		375.1,280.9 373.4,280.9 372.2,286.9 364.9,286.9 366.1,280.9 364.5,280.9 	"/>
	<path id="XMLID_58_" class="st0" d="M384.2,293.4c-0.6,0.3-0.7,0.4-1,0.4c-0.3,0-0.4-0.2-0.4-0.6c0-0.2,0-0.4,0.2-1.1l0.9-4.5
		c0.1-0.5,0.2-1,0.2-1.3c0-1.2-0.8-1.9-2.3-1.9c-1.3,0-2.7,0.5-4.4,1.6l0.6,0.9c1.5-0.9,2.5-1.3,3.4-1.3c0.7,0,1.2,0.4,1.2,0.9
		c0,0.1,0,0.3,0,0.4l-0.3,1.5c-1.7,0.2-2.8,0.4-3.7,0.7c-1.8,0.6-2.8,1.8-2.8,3.3c0,1.4,1.1,2.5,2.6,2.5c1.1,0,2-0.5,3-1.6l0,0.4
		c0,0.7,0.4,1.2,1,1.2c0.4,0,0.8-0.1,1.6-0.6c0.2-0.1,0.4-0.2,0.6-0.4L384.2,293.4z M381.5,292.3l-0.5,0.5c-0.6,0.6-1.4,1-2.1,1
		c-0.9,0-1.6-0.7-1.6-1.6c0-0.7,0.4-1.4,1.2-1.9c0.7-0.4,1.7-0.7,3.5-1L381.5,292.3z"/>
	<path id="XMLID_59_" class="st0" d="M386.4,294.8h1.6l1.4-6.9c1.1-1.5,1.7-1.9,2.7-1.9c0.3,0,0.5,0,0.8,0.1l0.4-1.5
		c-0.4-0.1-0.6-0.1-0.8-0.1c-1.1,0-2.1,0.7-3,2l0.5-1.7h-1.6L386.4,294.8z"/>
	<path id="XMLID_62_" class="st0" d="M393.5,294.8c1.6,0,2.1,0.1,2.6,0.1c1.5,0,2.7-0.3,3.8-1c2-1.2,3.3-3.5,3.3-5.8
		c0-2.1-1.2-3.5-3-3.5c-1.3,0-2.5,0.6-3.5,1.9l1.4-6.5h-1.6L393.5,294.8z M396.5,287.8c1.5-1.5,2.3-2,3.3-2c1.1,0,1.8,0.9,1.8,2.3
		c0,1.7-0.8,3.4-2,4.4c-1,0.8-2.1,1.2-3.5,1.2l-0.8,0L396.5,287.8z"/>
	<path id="XMLID_63_" class="st0" d="M406.8,284.8l-1.4,7.1c-0.1,0.5-0.2,1-0.2,1.4c0,1.1,0.8,1.8,2,1.8c1.4,0,2.7-0.7,4.1-2.4
		l-0.5,2.1h1.6l2.1-10h-1.6l-1.4,6.6c-1.7,1.7-2.7,2.4-3.7,2.4c-0.5,0-1-0.4-1-0.9c0-0.2,0.1-0.7,0.2-1.3l1.4-6.8L406.8,284.8
		L406.8,284.8z"/>
	<path id="XMLID_64_" class="st0" d="M415.9,294.8h1.6l1.4-6.9c1.1-1.5,1.7-1.9,2.7-1.9c0.3,0,0.5,0,0.8,0.1l0.4-1.5
		c-0.4-0.1-0.6-0.1-0.8-0.1c-1.1,0-2.1,0.7-3,2l0.5-1.7H418L415.9,294.8z"/>
	<path id="XMLID_68_" class="st0" d="M432.5,284.8l-3,0.1c-0.7-0.3-1.1-0.4-1.7-0.4c-1.1,0-2,0.3-2.7,1c-0.7,0.7-1.2,1.7-1.2,2.7
		c0,1.1,0.4,1.8,1.3,2.3l-1.7,0.9c-0.6,0.3-0.9,0.7-0.9,1c0,0.3,0.2,0.6,0.6,0.8c0.3,0.2,0.7,0.3,1.7,0.5c-2,0.7-3.1,1.8-3.1,3.1
		c0,1.6,1.7,2.8,4.1,2.8c2.8,0,5-1.5,5-3.5c0-1.2-1-2.1-2.6-2.6l-2.6-0.7c-1.2-0.3-1.3-0.4-1.3-0.7c0-0.2,0.1-0.3,0.4-0.5l1.1-0.6
		c0.5,0.2,0.8,0.2,1.3,0.2c2.2,0,3.8-1.6,3.8-3.5c0-0.8-0.2-1.4-0.7-1.8h2L432.5,284.8z M427.8,285.4c1.1,0,1.7,0.8,1.7,2
		c0,1.5-1,2.8-2.3,2.8c-1.1,0-1.8-0.8-1.8-1.9C425.4,286.7,426.4,285.4,427.8,285.4z M427,294.4c1.1,0.3,1.1,0.3,1.3,0.4
		c0.6,0.3,1,0.8,1,1.3c0,1.3-1.5,2.4-3.2,2.4c-1.6,0-2.8-0.8-2.8-1.9c0-0.9,0.8-1.6,2.6-2.5L427,294.4z"/>
	<polygon id="XMLID_69_" class="st1" points="122,200.5 122,214.8 141.6,214.8 141.4,269.6 159.6,269.6 159.8,214.8 178.3,214.8 
		178.3,200.5 	"/>
	<path id="XMLID_70_" class="st1" d="M224.2,200.5L224,239c0,8.4-0.4,11.2-1.8,13.7c-1.7,2.7-5.1,4.5-8.9,4.5
		c-4.7,0-8.5-2.4-9.9-6.1c-0.9-2.5-1.1-5.6-1.1-14.4l0.1-36.2h-18.2l-0.1,35.8v2.8c0,13.2,0.5,16.3,3.7,21.1
		c4.8,7.3,13.7,11.4,24.6,11.4c14.2,0,24.7-5.9,28.3-15.9c1.3-3.5,1.6-6.5,1.7-16.7l0.1-38.6H224.2L224.2,200.5z"/>
	<polygon id="XMLID_71_" class="st1" points="308,269.6 308.3,200.5 290.1,200.5 290,227.2 266.7,227.2 266.9,200.5 248.6,200.5 
		248.3,269.6 266.5,269.6 266.7,242.1 289.9,242.1 289.8,269.6 	"/>
	<polygon id="XMLID_72_" class="st1" points="374.9,269.6 375.2,200.5 357,200.5 356.9,227.2 333.7,227.2 333.8,200.5 315.5,200.5 
		315.2,269.6 333.5,269.6 333.7,242.1 356.8,242.1 356.7,269.6 	"/>
</g>
</svg>
